<svg viewBox="0 0 117 120" fill="none" xmlns="http://www.w3.org/2000/svg">
<path d="M0 60C0 0 0 0 58.4141 0C116.828 0 116.828 0 116.828 60C116.828 120 116.828 120 58.4141 120C0 120 0 120 0 60Z" fill="white"/>
<path d="M82.4157 57.4644V62.5741C82.4157 71.8071 79.8737 78.9974 74.7906 84.1431C69.7424 89.2524 62.4114 91.7894 52.7952 91.7894H36.5479C40.8205 89.8971 42.9571 85.8097 42.9571 79.5277V69.9914C42.9571 67.3801 43.5098 65.5251 44.6161 64.3537C45.7587 63.2174 47.0848 62.5357 48.6678 62.2717V57.7321C47.0848 57.4657 45.7587 56.7864 44.6161 55.6501C43.5098 54.4764 42.9571 52.6237 42.9571 50.0124V40.4737C42.9571 34.1931 40.8205 30.1058 36.5479 28.2134H52.7942C62.521 28.2134 69.8894 30.749 74.8992 35.8201C79.9123 40.8504 82.4157 48.0794 82.4157 57.4644Z" fill="black"/>
</svg>
