<svg viewBox="0 0 120 120" fill="none" xmlns="http://www.w3.org/2000/svg">
<path d="M59.5688 0C29.1038 0 31.005 13.2806 31.005 13.2806L31.0425 27.0399H60.1125V31.1677H19.4888C19.4888 31.1677 0 28.9435 0 59.8473C0 90.7436 17.0138 89.6504 17.0138 89.6504H27.1688V75.3105C27.1688 75.3105 26.6213 58.2075 43.9125 58.2075H72.7425C72.7425 58.2075 88.9425 58.4714 88.9425 42.4691V16.0098C88.9425 16.0098 91.4025 0 59.5688 0ZM43.5375 9.25078C46.4288 9.25078 48.7688 11.6031 48.7688 14.5095C48.7688 17.4159 46.4288 19.7682 43.5375 19.7682C42.8503 19.7692 42.1696 19.6338 41.5344 19.3699C40.8993 19.106 40.3222 18.7187 39.8363 18.2301C39.3503 17.7416 38.965 17.1615 38.7025 16.5231C38.4399 15.8846 38.3053 15.2003 38.3063 14.5095C38.3063 11.6031 40.6463 9.25078 43.5375 9.25078Z" fill="white"/>
<path d="M60.4313 120C90.8963 120 88.995 106.719 88.995 106.719L88.9575 92.9602H59.8875V88.8324H100.508C100.508 88.8324 120 91.0565 120 60.1565C120 29.2565 102.986 30.3535 102.986 30.3535H92.8313V44.6895C92.8313 44.6895 93.3788 61.7925 76.0875 61.7925H47.2575C47.2575 61.7925 31.0575 61.5287 31.0575 77.5309V103.99C31.0575 103.99 28.5975 120 60.4313 120ZM76.4625 110.749C75.7753 110.75 75.0946 110.615 74.4594 110.351C73.8243 110.087 73.2472 109.7 72.7613 109.211C72.2753 108.723 71.89 108.143 71.6275 107.504C71.3649 106.866 71.2303 106.181 71.2313 105.491C71.2313 102.588 73.5713 100.236 76.4625 100.236C79.3538 100.236 81.6938 102.584 81.6938 105.491C81.6938 108.401 79.3538 110.749 76.4625 110.749Z" fill="white"/>
</svg>
