<svg viewBox="0 0 90 130" fill="none" xmlns="http://www.w3.org/2000/svg">
<path d="M45 5H25C13.9543 5 5 13.9543 5 25C5 36.0457 13.9543 45 25 45M45 5V45M45 5H65C76.046 5 85 13.9543 85 25C85 36.0457 76.046 45 65 45M25 45H45M25 45C13.9543 45 5 53.954 5 65C5 76.046 13.9543 85 25 85M45 45H65M45 45V85M65 45C76.046 45 85 53.954 85 65C85 76.046 76.046 85 65 85C53.954 85 45 76.046 45 65C45 53.954 53.954 45 65 45ZM45 85H25M45 85V105C45 116.046 36.046 125 25 125C13.9543 125 5 116.046 5 105C5 93.954 13.9543 85 25 85" stroke="white" stroke-width="10" stroke-linecap="round" stroke-linejoin="round"/>
</svg>