<svg viewBox="0 0 120 81" fill="none" xmlns="http://www.w3.org/2000/svg">
<path d="M117.543 0H2.457C1.10223 0 0 1.102 0 2.45677V77.6045C0 78.9592 1.10223 80.0615 2.457 80.0615H117.543C118.898 80.0615 120 78.9592 120 77.6045V2.45677C120 1.102 118.898 0 117.543 0ZM115.087 4.91378V75.1477H4.91378V4.91378H115.087Z" fill="white"/>
<path d="M30.4219 69.5535H106.788C108.143 69.5535 109.244 68.4513 109.244 67.0965V12.9626C109.244 11.6079 108.143 10.5059 106.788 10.5059H30.4219C29.0671 10.5059 27.9651 11.6079 27.9651 12.9626V67.096C27.9649 68.4513 29.0671 69.5535 30.4219 69.5535ZM32.8786 64.64V15.4196H104.331V64.64H32.8786Z" fill="white"/>
<path d="M15.6325 49.0694C20.6165 49.0694 24.6711 45.0144 24.6711 40.0304C24.6711 35.0464 20.6163 30.9921 15.6325 30.9921C10.6488 30.9921 6.59399 35.0468 6.59399 40.0306C6.59399 45.0144 10.6485 49.0694 15.6325 49.0694ZM15.6325 35.9058C17.907 35.9058 19.7573 37.7562 19.7573 40.0304C19.7573 42.3053 17.907 44.1554 15.6325 44.1554C13.3583 44.1554 11.508 42.3053 11.508 40.0304C11.508 37.7562 13.3583 35.9058 15.6325 35.9058Z" fill="white"/>
<path d="M9.051 29.1373H22.2141C23.5689 29.1373 24.6709 28.0353 24.6709 26.6805V12.7905C24.6709 11.4357 23.5689 10.3337 22.2141 10.3337H9.051C7.69623 10.3337 6.59399 11.4357 6.59399 12.7905V26.6805C6.59399 28.0353 7.69623 29.1373 9.051 29.1373ZM11.508 24.2235V15.2471H19.7575V24.2235H11.508Z" fill="white"/>
<path d="M9.051 69.5535H22.2141C23.5689 69.5535 24.6709 68.4513 24.6709 67.0965V53.2065C24.6709 51.8518 23.5689 50.75 22.2141 50.75H9.051C7.69623 50.75 6.59399 51.8518 6.59399 53.2065V67.0961C6.59399 68.4513 7.69623 69.5535 9.051 69.5535ZM11.508 64.64V55.6633H19.7575V64.64H11.508Z" fill="white"/>
<path d="M95.4817 15.9871C93.8486 15.9871 92.3147 16.6217 91.163 17.7737L61.4136 47.5242C61.3927 47.5447 61.3745 47.567 61.3559 47.5919C61.0894 47.8302 60.8841 48.1093 60.7446 48.422L56.604 57.7282C56.1931 58.6507 56.3973 59.7506 57.1121 60.4655C57.5755 60.9287 58.1925 61.184 58.8491 61.184C59.1966 61.184 59.5328 61.1126 59.8493 60.9724L69.1532 56.8299C69.472 56.6883 69.755 56.4765 69.9952 56.2014L70.0038 56.1946C70.0391 56.1686 70.0738 56.1414 70.1019 56.1123L99.8011 26.4118C100.953 25.2598 101.588 23.7259 101.588 22.0931C101.588 20.4599 100.954 18.9261 99.8011 17.7741C98.6488 16.6217 97.115 15.9871 95.4817 15.9871ZM95.4817 20.8994C95.8009 20.8994 96.1012 21.0232 96.326 21.2476C96.7911 21.7136 96.7911 22.4714 96.3265 22.9372L66.7401 52.5233L63.6952 53.8795L65.0486 50.836L94.6362 21.2483C94.8622 21.0232 95.1624 20.8994 95.4817 20.8994Z" fill="white"/>
</svg>
